<svg version="1.2" xmlns="http://www.w3.org/2000/svg" viewBox="0 0 24 24" width="24" height="24"><style>.a{fill:#e2e2e2}</style><path class="a" d="m9.1 7.4q1.1-1.2 2.4-2.3 1.3-1 2.8-1.7 1.5-0.7 3.1-1 1.7-0.4 3.3-0.4c0.7 0 1.3 0.6 1.3 1.3 0 4.5-2 8.7-5.4 11.6l-0.6 0.5v4.2c0 0.5-0.2 0.9-0.6 1.2l-1.7 1.3q-0.3 0.2-0.6 0.2-0.4 0.1-0.7 0-0.3-0.1-0.6-0.3-0.2-0.2-0.4-0.5l-1.5-3.5q-0.2-0.3-0.1-0.6 0.1-0.3 0.4-0.4 0.3-0.1 0.6 0 0.3 0.1 0.4 0.4l1.6 3.5 1.7-1.3v-4.6q0-0.1 0-0.2 0 0 0.1-0.1 0-0.1 0.1-0.2 0 0 0.1-0.1l0.8-0.7q1.1-0.9 2-2.1 0.9-1.1 1.6-2.5 0.6-1.3 0.9-2.7 0.4-1.4 0.4-2.9-1.5 0-2.9 0.4-1.4 0.3-2.7 0.9-1.4 0.7-2.5 1.6-1.2 0.9-2.1 2l-0.7 0.8q-0.1 0.1-0.1 0.1-0.1 0.1-0.2 0.1-0.1 0.1-0.1 0.1-0.1 0-0.2 0h-4.6l-1.3 1.7 3.5 1.6q0.3 0.1 0.4 0.4 0.1 0.3 0 0.6-0.1 0.3-0.4 0.4-0.3 0.1-0.6-0.1l-3.5-1.5q-0.3-0.2-0.5-0.4-0.2-0.3-0.3-0.6-0.1-0.3 0-0.7 0-0.3 0.2-0.6l1.3-1.7q0.1-0.1 0.2-0.2 0.1-0.2 0.3-0.2 0.2-0.1 0.3-0.2 0.2 0 0.4 0h4.2z"/><path class="a" d="m11.8 13.3q0.2-0.2 0.2-0.6 0-0.3-0.2-0.5-0.2-0.2-0.5-0.2-0.4 0-0.6 0.2l-5.5 5.5q-0.2 0.2-0.2 0.6 0 0.3 0.2 0.5 0.2 0.2 0.5 0.2 0.4 0 0.6-0.2z"/></svg>